<svg xmlns="http://www.w3.org/2000/svg" xmlns:xlink="http://www.w3.org/1999/xlink" width="1125" viewBox="0 0 1125 1125" height="1125" version="1.0"><defs><clipPath id="a"><path d="M 222 229 L 886.386719 229 L 886.386719 899.757812 L 222 899.757812 Z M 222 229"/></clipPath><clipPath id="b"><path d="M 319.648438 745.199219 C 312.195312 741.8125 309.921875 731.019531 303.046875 722.839844 C 301.546875 719.9375 304.597656 723.757812 308.515625 729.277344 C 312.292969 734.792969 317.808594 741.378906 319.648438 745.199219 Z M 285.191406 747.136719 L 282.335938 749.21875 C 285.769531 754.589844 289.789062 759.238281 291.964844 757.980469 C 289.789062 755.171875 288.046875 753.914062 286.253906 752.703125 C 287.269531 751.589844 287.949219 750.476562 285.191406 747.136719 Z M 459.519531 831.742188 C 465.859375 833.917969 471.859375 835.660156 475.828125 835.421875 C 452.308594 829.613281 425.203125 816.496094 406.621094 808.121094 C 412.234375 811.21875 417.800781 814.414062 423.558594 817.269531 L 441.222656 824.964844 C 446.5 827 453.179688 829.613281 459.519531 831.742188 Z M 796.898438 776.226562 C 792.492188 782.226562 787.558594 787.261719 783.054688 792.296875 C 778.457031 797.230469 774.101562 802.121094 769.652344 806.429688 C 760.503906 814.851562 752.277344 822.980469 744 830.046875 C 743.804688 830.191406 743.613281 830.386719 743.417969 830.53125 C 739.304688 832.082031 735.386719 832.902344 731.753906 832.710938 C 725.949219 837.355469 719.898438 840.9375 714.234375 844.617188 C 708.476562 848.199219 703.054688 851.78125 697.632812 854.828125 C 697.488281 854.925781 697.34375 854.972656 697.246094 855.023438 C 696.667969 854.972656 696.132812 854.878906 695.457031 854.925781 C 695.359375 855.3125 695.261719 855.75 695.167969 856.136719 C 685.101562 861.460938 675.808594 866.636719 666.757812 870.996094 C 656.882812 875.542969 647.6875 880.480469 638.542969 885.03125 C 629.34375 889.433594 620.390625 894.324219 611.246094 899.792969 C 620.585938 896.355469 631.570312 892.339844 643.429688 888.03125 C 654.898438 883 667.386719 878.351562 679.484375 872.738281 C 682.96875 871.042969 686.503906 869.445312 690.035156 867.800781 C 690.035156 867.847656 689.988281 867.847656 689.988281 867.898438 C 693.328125 866.878906 695.3125 865.816406 696.957031 864.652344 C 703.054688 861.847656 709.054688 859.039062 714.765625 856.039062 C 709.105469 861.167969 703.492188 866.492188 697.925781 872.203125 C 706.054688 866.492188 715.636719 859.765625 725.949219 852.503906 C 727.785156 851.003906 729.722656 849.554688 731.65625 848.050781 C 731.65625 848.050781 731.707031 848.050781 731.707031 848.050781 C 737.03125 845.535156 742.0625 842.96875 746.953125 840.9375 C 747.917969 835.324219 739.789062 844.714844 738.480469 842.824219 C 742.0625 840.113281 745.644531 837.40625 749.179688 834.546875 C 756.4375 829.226562 763.40625 824.046875 769.652344 818.480469 C 774.394531 814.460938 778.941406 810.492188 783.25 806.574219 C 784.558594 805.316406 785.765625 804.007812 786.976562 802.699219 C 791.621094 798.636719 796.269531 794.714844 800.769531 791.085938 C 805.269531 787.261719 809.480469 783.484375 813.691406 780.242188 C 813.160156 774.339844 807.253906 786.730469 805.804688 784.066406 C 814.515625 773.03125 823.03125 763.109375 829.855469 752.703125 C 833.390625 747.621094 836.777344 742.585938 839.921875 737.648438 C 842.925781 732.617188 845.488281 727.4375 847.957031 722.402344 C 838.8125 733.921875 830.292969 746.121094 822.210938 756.574219 C 813.984375 766.933594 805.269531 774.53125 796.898438 776.226562 Z M 873.027344 607.792969 C 871.671875 614.179688 870.460938 620.132812 869.253906 625.796875 C 868.1875 631.507812 867.171875 636.878906 866.203125 642.105469 C 865.042969 647.285156 863.976562 652.417969 863.105469 657.546875 C 864.75 651.980469 866.496094 645.980469 868.332031 639.882812 C 869.785156 633.6875 871.238281 627.296875 872.6875 621.101562 C 875.738281 608.664062 876.609375 596.417969 876.269531 586.980469 C 875.109375 594.480469 874.042969 601.355469 873.027344 607.792969 Z M 439.046875 872.203125 C 445.484375 874.238281 453.03125 877.527344 460.582031 880.238281 C 468.132812 882.902344 475.828125 884.304688 481.878906 884.015625 C 474.910156 882.125 466.148438 879.804688 458.40625 876.804688 C 450.566406 873.945312 443.449219 871.769531 439.046875 872.203125 Z M 875.738281 477.691406 C 877.722656 483.980469 879.707031 490.128906 881.59375 496.035156 C 879.949219 488.871094 878.207031 481.753906 876.320312 474.785156 C 874.042969 467.914062 871.671875 461.183594 869.203125 454.699219 C 867.945312 451.457031 866.6875 448.308594 865.429688 445.164062 C 864.074219 442.113281 862.527344 439.164062 861.023438 436.308594 C 858.023438 430.597656 854.925781 425.222656 851.828125 420.335938 C 857.976562 433.015625 864.171875 445.746094 868.671875 458.714844 C 871.042969 465.152344 873.65625 471.445312 875.738281 477.691406 Z M 837.40625 396.8125 C 840.457031 401.847656 843.359375 406.054688 846.214844 408.621094 C 840.261719 398.796875 834.261719 386.792969 827.582031 380.597656 C 829.324219 383.355469 831.117188 386.117188 832.808594 388.824219 C 834.40625 391.585938 835.957031 394.296875 837.40625 396.8125 Z M 447.660156 747.621094 C 445.820312 746.121094 442.53125 743.894531 438.609375 741.523438 C 434.640625 739.152344 430.429688 736.003906 425.882812 733.585938 C 424.625 734.261719 422.542969 734.746094 425.203125 734.554688 C 429.707031 736.390625 433.769531 741.230469 435.320312 742.734375 C 431.738281 740.070312 427.964844 736.875 426.753906 739.972656 C 427.816406 740.023438 428.738281 740.359375 429.65625 740.796875 C 429.367188 740.941406 429.125 741.039062 428.835938 741.328125 C 428.640625 742.34375 431.011719 744.667969 433.820312 746.410156 C 436.675781 748.007812 439.820312 749.167969 440.59375 748.539062 C 439.386719 748.058594 438.222656 746.992188 437.0625 745.78125 C 437.933594 746.121094 438.753906 746.070312 439.53125 745.347656 C 438.511719 745.007812 437.304688 744.183594 436.09375 743.3125 C 449.402344 750.765625 451.339844 750.621094 447.660156 747.621094 Z M 453.273438 779.90625 C 458.648438 782.324219 464.503906 787.261719 468.179688 783.4375 C 461.988281 781.210938 456.90625 779.128906 453.273438 779.90625 Z M 225.078125 605.082031 C 226.046875 608.515625 227.0625 611.761719 227.984375 614.519531 C 226.96875 611.035156 226.144531 607.402344 225.757812 603.773438 C 225.46875 600.144531 225.371094 596.515625 225.273438 593.125 C 225.078125 586.300781 224.933594 580.347656 223.386719 576.425781 C 221.984375 580.492188 222.175781 587.269531 223.144531 594.433594 C 223.628906 597.964844 224.304688 601.597656 225.078125 605.082031 Z M 424.71875 799.894531 C 423.996094 800.328125 428.058594 803.523438 439.578125 806.1875 C 435.269531 803.667969 431.691406 802.121094 429.125 801.105469 C 426.65625 800.039062 425.058594 799.652344 424.71875 799.894531 Z M 353.574219 747.765625 C 359.769531 752.074219 366.496094 758.269531 372.160156 758.996094 C 368.144531 755.753906 363.304688 750.523438 359.820312 746.796875 C 356.285156 743.070312 354.011719 740.796875 355.558594 743.023438 C 361.753906 748.878906 354.058594 743.847656 353.574219 747.765625 Z M 407.394531 789.535156 C 402.503906 782.613281 392.921875 781.5 384.550781 773.902344 C 384.984375 781.308594 403.859375 785.664062 407.394531 789.535156 Z M 274.105469 403.683594 C 273.527344 402.039062 273.769531 398.796875 275.511719 399.183594 C 278.558594 394.730469 286.882812 380.164062 289.207031 378.128906 C 292.59375 372.804688 295.933594 367.578125 299.320312 362.542969 C 305.855469 353.542969 311.613281 344.25 317.375 335.488281 C 316.359375 339.214844 315.875 342.796875 312.484375 347.878906 C 316.550781 343.8125 320.472656 339.941406 324.390625 336.164062 C 327.101562 333.261719 329.8125 330.40625 332.570312 327.648438 C 341.28125 319.613281 349.753906 311.722656 358.171875 304.367188 C 366.835938 297.347656 374.773438 289.847656 382.613281 282.925781 C 380.679688 286.265625 379.273438 289.605469 374.675781 293.621094 C 375.210938 293.332031 375.695312 293.039062 376.226562 292.75 C 396.699219 277.941406 417.894531 266.808594 441.367188 258.484375 C 440.160156 256.160156 434.640625 258.386719 428.929688 260.949219 C 425.398438 260.757812 430.867188 258.675781 437.351562 256.304688 C 443.742188 253.835938 451.484375 251.996094 451.773438 250.109375 C 451.242188 252.964844 455.597656 253.0625 462.761719 251.65625 C 466.101562 250.882812 470.164062 250.011719 474.617188 249.09375 C 490.25 244.785156 505.980469 241.929688 522.339844 240.621094 C 521.953125 238.878906 518.949219 238.6875 515.128906 239.074219 C 513.820312 239.265625 512.5625 239.414062 511.207031 239.605469 C 510.722656 239.703125 510.238281 239.75 509.707031 239.847656 C 507.675781 239.171875 509.027344 238.6875 511.933594 238.300781 C 514.886719 235.976562 526.453125 237.136719 535.988281 233.945312 C 533.613281 231.910156 527.03125 232.441406 523.113281 231.378906 C 537.050781 225.8125 541.890625 236.703125 558.636719 235.152344 C 557.039062 233.554688 553.3125 232.878906 548.570312 232.734375 C 550.214844 231.523438 554.425781 231.523438 553.652344 229.199219 C 572.574219 229.972656 591.59375 232.492188 610.421875 236.652344 C 609.648438 236.316406 608.921875 235.976562 608.292969 235.636719 C 615.117188 234.816406 619.183594 236.894531 623.199219 239.605469 C 627.3125 240.671875 631.378906 241.929688 635.445312 243.140625 C 636.992188 243.042969 638.445312 242.898438 638.394531 241.398438 C 682.777344 255.238281 725.125 279.148438 761.179688 311.289062 C 770.425781 319.5625 779.234375 328.375 787.605469 337.667969 C 793.414062 343.714844 799.078125 349.910156 804.546875 356.347656 C 805.511719 358.042969 806.675781 359.882812 807.789062 361.671875 C 813.257812 365.0625 819.546875 378.371094 825.015625 385.339844 C 824.050781 384.808594 822.984375 383.792969 821.96875 382.535156 C 831.597656 397.34375 840.261719 412.882812 847.859375 429.144531 C 848.34375 431.03125 849.023438 433.113281 849.601562 435.097656 C 853.667969 439.453125 856.234375 452.085938 859.332031 460.410156 C 857.929688 454.746094 857.539062 449.375 859.234375 448.019531 C 865.042969 454.410156 864.363281 467.621094 866.300781 475.414062 C 863.929688 473.769531 861.316406 467.863281 859.671875 461.910156 C 856.089844 457.84375 853.765625 445.601562 850.183594 437.273438 C 850.425781 438 850.570312 438.628906 850.8125 439.355469 C 851.78125 442.988281 852.847656 446.859375 853.910156 450.875 C 855.945312 458.910156 859.039062 467.332031 860.878906 476.578125 C 862.816406 485.773438 865.382812 495.257812 866.734375 505.132812 C 867.996094 515.007812 869.589844 524.976562 869.980469 534.898438 C 870.460938 542.789062 870.609375 550.679688 870.460938 558.566406 C 870.460938 558.617188 870.460938 558.710938 870.460938 558.761719 C 870.460938 559.050781 870.460938 559.34375 870.460938 559.582031 C 870.460938 560.601562 870.460938 561.664062 870.414062 562.679688 C 870.269531 596.753906 865.621094 631.023438 854.832031 663.886719 C 833.003906 731.988281 788.816406 794.328125 725.753906 835.226562 C 725.851562 834.066406 726.480469 832.855469 727.785156 831.5 C 713.800781 841.179688 698.988281 849.796875 683.40625 857.152344 C 678.953125 859.71875 674.5 862.28125 670.144531 864.800781 C 666.804688 866.640625 663.5625 868.527344 660.175781 870.125 C 656.789062 871.625 653.351562 873.074219 649.914062 874.429688 C 652.238281 871.625 656.933594 869.253906 661.964844 866.640625 C 662.644531 866.25 663.320312 865.914062 664 865.527344 C 658.625 867.605469 653.253906 869.589844 647.738281 871.382812 C 648.367188 869.640625 650.109375 868.042969 654.320312 866.734375 C 654.027344 866.785156 653.738281 866.878906 653.449219 866.976562 C 651.511719 867.65625 649.574219 868.382812 647.542969 869.011719 C 641.785156 870.945312 635.878906 872.929688 630.167969 874.867188 C 624.359375 876.464844 618.699219 877.769531 613.664062 878.882812 C 619.035156 876.753906 625.039062 874.914062 631.378906 872.6875 C 623.632812 874.820312 616.085938 877.140625 608.582031 879.660156 C 601.082031 881.644531 593.675781 883.628906 586.417969 885.5625 C 582.738281 886.433594 579.109375 887.449219 575.429688 888.082031 C 571.753906 888.660156 568.074219 889.195312 564.445312 889.582031 C 567.445312 887.449219 572.527344 886.386719 578.140625 885.175781 C 583.707031 883.773438 589.804688 882.515625 594.789062 880.867188 C 586.996094 881.253906 575.722656 883.144531 563.574219 883.722656 C 557.523438 884.113281 551.28125 884.5 545.277344 884.886719 C 539.277344 884.933594 533.46875 884.742188 528.292969 884.5 C 536.082031 883.578125 544.890625 883.480469 554.425781 882.464844 C 563.910156 881.496094 574.125 881.546875 584.433594 879.851562 C 576.300781 876.707031 564.492188 875.253906 552.78125 874.382812 C 549.875 874.140625 546.925781 873.898438 544.070312 873.65625 C 541.214844 873.171875 538.453125 872.738281 535.792969 872.300781 C 530.46875 871.332031 525.726562 870.171875 522 868.574219 C 524.03125 869.445312 524.660156 868.042969 523.9375 866.203125 C 517.835938 866.445312 507.625 864.023438 501.09375 863.78125 C 504.867188 861.992188 515.320312 864.414062 523.402344 865.234375 C 522.433594 863.6875 520.644531 862.039062 517.835938 861.167969 C 517.355469 860.976562 516.917969 860.832031 516.480469 860.683594 C 517.113281 860.636719 517.644531 860.394531 517.933594 859.960938 C 517.207031 861.023438 507.964844 852.699219 516.242188 853.910156 C 506.171875 851.585938 496.882812 848.683594 488.167969 845.679688 C 479.601562 842.246094 471.667969 838.277344 464.019531 834.402344 C 472.585938 836.242188 486.332031 843.453125 500.460938 846.40625 C 514.402344 850.183594 528.097656 850.183594 533.226562 843.308594 C 528.242188 838.953125 523.160156 834.984375 516.242188 831.453125 C 509.367188 827.53125 500.414062 824.917969 487.6875 822.496094 C 487.054688 820.175781 487.78125 817.464844 485.023438 815.671875 C 485.75 813.832031 493.058594 819.304688 499.253906 818.867188 C 501.480469 818.480469 501.867188 816.542969 505.835938 817.609375 C 505.691406 816.980469 505.300781 816.398438 504.914062 815.867188 C 500.460938 815.382812 494.363281 814.65625 490.058594 814.511719 C 489.765625 812.382812 492.136719 812.671875 494.605469 813.058594 C 487.394531 810.445312 481.925781 809.476562 476.359375 808.027344 C 470.746094 806.765625 464.792969 805.847656 456.808594 803.378906 C 458.597656 801.394531 454.921875 800.136719 452.015625 798.78125 C 459.324219 800.425781 469.777344 802.703125 480.28125 806.429688 C 485.507812 808.316406 491.074219 809.527344 496.203125 811.269531 C 498.476562 811.945312 500.703125 812.71875 502.882812 813.496094 C 501.042969 811.945312 498.816406 810.542969 497.171875 808.898438 C 501.722656 807.878906 513.191406 819.253906 515.371094 809.574219 C 515.5625 806.1875 507.527344 806.089844 502.058594 804.929688 C 502.835938 802.410156 507.382812 803.28125 512.175781 804.25 C 511.691406 800.621094 509.851562 798.007812 510.238281 796.167969 C 506.851562 795.683594 503.753906 794.8125 502.640625 794.183594 C 503.171875 793.3125 504.722656 793.410156 504.964844 792.246094 C 481.105469 787.066406 505.738281 790.3125 513.675781 793.796875 C 513.722656 793.796875 513.773438 793.746094 513.867188 793.746094 C 509.511719 789.679688 506.898438 787.890625 504.140625 786.390625 C 501.382812 784.988281 498.527344 783.582031 494.171875 780.148438 C 495.769531 779.277344 498.625 780.292969 501.625 781.5 C 504.671875 782.566406 507.820312 784.019531 509.753906 784.648438 C 511.789062 783.824219 513.773438 782.953125 515.660156 782.035156 C 512.996094 777.824219 501.429688 780.921875 500.171875 778.066406 C 500.703125 776.46875 501.1875 774.871094 499.253906 774.144531 C 503.65625 773.128906 509.707031 779.46875 517.742188 780 C 517.59375 778.355469 510.917969 776.613281 518.078125 777.679688 C 516.09375 775.015625 507.675781 775.304688 504.820312 773.03125 C 508.835938 772.597656 517.402344 772.886719 523.789062 773.804688 C 525.339844 770.855469 520.644531 770.949219 519.242188 769.5 C 515.660156 768.675781 513.820312 769.546875 513.675781 772.160156 C 508.253906 767.707031 507.867188 763.738281 502.15625 761.5625 C 500.074219 757.738281 509.609375 761.125 504.527344 758.511719 C 507.382812 756.574219 514.207031 757.738281 521.175781 759.285156 C 522.917969 759.671875 524.660156 760.011719 526.355469 760.351562 C 528.050781 760.542969 529.695312 760.640625 531.242188 760.691406 C 533.519531 760.738281 535.453125 760.640625 536.90625 760.15625 C 531.050781 759.769531 525.242188 759.09375 519.386719 758.222656 C 518.757812 758.125 518.078125 758.027344 517.449219 757.929688 C 515.660156 757.640625 513.917969 757.300781 512.125 756.960938 C 510.335938 756.625 508.546875 756.285156 506.753906 755.945312 C 506.125 755.800781 505.542969 755.65625 504.914062 755.511719 C 491.800781 752.558594 479.167969 748.347656 467.164062 742.976562 C 466.875 742.828125 466.585938 742.683594 466.292969 742.585938 C 463.632812 741.378906 460.96875 740.121094 458.40625 738.8125 C 457.535156 738.375 456.710938 737.941406 455.886719 737.503906 C 453.902344 736.488281 451.917969 735.425781 449.984375 734.3125 C 448.628906 733.535156 447.320312 732.761719 445.96875 731.941406 C 444.613281 731.117188 443.207031 730.292969 441.851562 729.472656 C 441.371094 729.179688 440.886719 728.890625 440.449219 728.601562 C 440.109375 729.082031 441.464844 730.246094 444.855469 732.035156 C 440.980469 733.488281 435.269531 726.179688 432.898438 724.097656 C 427.722656 729.761719 439.386719 731.457031 440.980469 735.277344 C 432.898438 733.828125 427.332031 725.9375 420.75 724.148438 C 422.253906 725.984375 427.574219 730.4375 433.625 734.648438 C 430.09375 733.199219 425.542969 732.277344 421.1875 730.828125 C 420.171875 730.488281 419.15625 730.101562 418.234375 729.617188 C 420.945312 732.179688 423.460938 734.746094 425.445312 736.34375 C 424.867188 736.390625 424.285156 736.246094 423.703125 736.152344 C 423.800781 736.34375 423.996094 736.488281 424.089844 736.683594 C 414.894531 736.441406 409.667969 724.242188 398.875 721.144531 C 397.957031 724.390625 406.183594 724.390625 406.136719 728.792969 C 407.054688 727.390625 410.199219 729.859375 413.445312 733.199219 C 416.6875 736.585938 420.605469 740.3125 422.15625 742.492188 C 412.863281 737.410156 406.910156 732.035156 400.375 727.050781 C 397.035156 724.632812 393.9375 721.824219 390.503906 718.773438 C 386.96875 715.820312 383.097656 712.578125 378.644531 708.851562 C 387.40625 718 391.132812 727.632812 402.84375 738.375 C 399.699219 729.90625 407.441406 740.75 407.734375 743.992188 C 410.539062 742.925781 414.847656 745.636719 419.589844 749.363281 C 418.914062 750.285156 417.21875 748.832031 415.910156 748.25 C 431.109375 763.546875 454.484375 773.515625 481.976562 784.164062 C 477.136719 783.246094 472.34375 782.082031 467.601562 780.824219 C 462.90625 779.371094 458.453125 777.386719 454 775.546875 C 452.5 774.96875 451.097656 774.289062 449.695312 773.660156 C 452.695312 775.453125 455.164062 777.242188 455.40625 778.355469 C 458.113281 779.757812 458.839844 778.5 461.117188 779.324219 C 462.082031 780.96875 458.210938 780.4375 453.664062 779.128906 C 449.113281 777.871094 444.273438 775.113281 442.964844 773.855469 C 443.691406 773.175781 445.191406 773.660156 445.675781 772.597656 C 434.207031 766.691406 435.269531 766.59375 439.773438 768.578125 C 436.191406 766.546875 432.753906 764.417969 429.316406 762.382812 C 425.445312 760.207031 422.011719 757.59375 418.574219 755.171875 C 416.542969 754.105469 414.507812 753.089844 412.523438 751.929688 C 408.410156 749.316406 404.585938 746.265625 400.761719 743.3125 C 398.441406 741.621094 396.3125 739.828125 394.230469 737.941406 C 392.972656 737.167969 391.761719 736.390625 390.503906 735.714844 C 395.246094 740.601562 399.648438 745.152344 404.152344 749.265625 C 406.667969 750.621094 409.425781 752.558594 412.621094 754.785156 C 412.183594 755.074219 411.75 755.171875 411.3125 755.269531 C 411.363281 755.316406 411.410156 755.367188 411.507812 755.414062 C 415.089844 758.222656 418.574219 760.929688 422.058594 763.640625 C 425.738281 766.109375 429.558594 768.386719 433.433594 770.804688 C 448.917969 780.390625 467.40625 788.808594 494.507812 796.070312 C 488.507812 796.117188 482.167969 794.667969 475.632812 792.683594 C 469.101562 790.796875 462.277344 788.570312 455.839844 785.421875 C 442.578125 779.953125 430.238281 772.691406 418.332031 768.53125 C 417.21875 767.078125 417.894531 766.886719 418.527344 766.207031 C 418.089844 765.917969 417.605469 765.675781 417.171875 765.382812 C 411.3125 761.851562 405.359375 757.980469 399.941406 753.234375 C 397.132812 751.105469 394.421875 748.878906 391.761719 746.605469 C 393.214844 749.074219 394.132812 751.734375 395.292969 750.574219 C 398.875 755.21875 390.988281 751.976562 388.566406 749.558594 C 388.519531 752.269531 391.324219 756.625 385.519531 753.1875 C 384.210938 755.703125 388.617188 759.1875 388.710938 762.042969 C 390.40625 762.578125 391.957031 763.253906 394.230469 764.851562 L 400.957031 769.5 C 406.28125 772.402344 412.234375 775.839844 418.136719 779.855469 C 422.6875 783.050781 427.769531 785.617188 432.269531 788.664062 C 436.917969 791.519531 441.128906 794.714844 445.046875 797.136719 C 446.113281 798.25 433.140625 792.539062 425.589844 790.214844 C 425.640625 789.683594 425.832031 789.34375 426.125 789.148438 C 417.363281 786.050781 409.425781 780.339844 397.617188 771.628906 C 397.183594 771.335938 396.746094 771.144531 396.3125 770.855469 C 396.359375 770.804688 396.359375 770.757812 396.40625 770.757812 C 396.070312 770.515625 395.777344 770.320312 395.441406 770.03125 C 395.828125 770.222656 396.164062 770.371094 396.554688 770.5625 C 397.667969 769.5 396.457031 768.191406 394.761719 766.789062 C 384.5 762.578125 377.195312 757.300781 369.351562 751.976562 C 365.625 748.976562 361.804688 745.878906 357.59375 742.539062 C 353.332031 739.199219 348.542969 735.714844 343.460938 731.308594 C 343.800781 723.613281 329.375 717.953125 323.570312 706.625 C 324.539062 708.273438 326.28125 714.417969 329.230469 720.082031 C 330.878906 722.886719 332.765625 725.550781 334.847656 727.488281 C 334.265625 726.226562 333.976562 725.019531 334.167969 723.808594 C 335.765625 726.277344 337.554688 728.359375 339.394531 730.195312 C 340.023438 730.34375 340.605469 730.4375 341.234375 730.390625 C 341.816406 731.503906 341.816406 732.035156 341.574219 732.328125 C 346.027344 736.488281 350.332031 739.78125 352.171875 744.8125 C 350.671875 741.910156 343.605469 737.359375 338.765625 732.570312 C 338.667969 732.570312 338.574219 732.617188 338.523438 732.617188 C 343.316406 736.78125 344.285156 737.359375 344.523438 741.667969 C 347.1875 743.796875 344.816406 738.910156 347.769531 741.621094 C 349.074219 745.105469 350.1875 748.347656 355.800781 755.65625 C 357.207031 757.058594 358.511719 758.511719 359.964844 759.867188 C 360.933594 758.851562 359.675781 757.253906 358.125 755.511719 C 366.546875 764.320312 375.886719 772.546875 385.953125 780.292969 C 385.421875 779.371094 385.324219 778.453125 386.050781 777.679688 C 389.921875 780.871094 394.230469 783.488281 398.441406 786.246094 C 397.425781 786.292969 393.792969 785.277344 390.550781 783.777344 C 412.574219 799.941406 438.222656 813.589844 467.699219 824.09375 C 467.648438 827.578125 456.613281 819.59375 456.46875 822.980469 C 462.664062 827.871094 479.457031 831.0625 490.203125 833.582031 C 493.15625 829.855469 482.070312 830.191406 477.8125 828.449219 C 472.875 825.546875 495.769531 830.53125 497.125 832.613281 C 493.398438 834.886719 485.75 834.015625 477.136719 832.082031 C 468.664062 829.613281 459.277344 825.980469 451.386719 823.757812 C 452.839844 823.222656 454.242188 822.691406 454.679688 821.09375 C 452.597656 820.464844 450.515625 819.691406 448.484375 818.820312 C 447.515625 821.289062 448.917969 821.53125 442.191406 822.59375 C 440.496094 822.253906 439.578125 821.289062 438.996094 820.222656 C 437.980469 819.835938 436.964844 819.449219 435.898438 818.964844 C 430.820312 816.738281 425.398438 812.960938 421.476562 811.753906 C 425.058594 811.847656 427.722656 812.769531 430.335938 814.027344 C 430.140625 812.867188 430.722656 811.945312 426.851562 809.527344 C 422.589844 810.347656 415.816406 807.6875 408.3125 803.816406 C 400.761719 799.214844 392.632812 793.261719 385.613281 789.101562 C 386.582031 789.003906 387.503906 788.859375 388.277344 788.472656 C 386.632812 787.261719 384.984375 786.050781 383.339844 784.839844 C 382.710938 785.90625 382.226562 786.148438 377.097656 785.617188 C 371.726562 782.953125 376.953125 775.402344 370.804688 779.128906 C 366.351562 774.582031 368.289062 774.339844 367.949219 772.546875 C 361.511719 767.464844 355.511719 762.917969 350.71875 759.671875 C 351.398438 759.578125 351.738281 759.335938 351.882812 759.042969 C 347.234375 754.640625 341.910156 749.121094 336.925781 742.636719 C 333.976562 738.957031 330.972656 735.230469 327.972656 731.457031 C 327.925781 731.40625 327.875 731.359375 327.875 731.308594 C 327.585938 732.519531 327.199219 734.019531 324.683594 732.230469 C 323.90625 733.585938 324.828125 734.988281 326.183594 736.296875 C 326.085938 736.101562 325.941406 735.910156 325.746094 735.667969 C 328.167969 736.054688 329.375 737.746094 330.34375 739.78125 C 331.214844 740.601562 331.699219 741.28125 331.214844 741.8125 C 332.136719 744.136719 333.105469 746.605469 335.039062 748.394531 C 331.796875 748.832031 330.828125 745.152344 330.007812 742.394531 C 329.957031 742.394531 329.957031 742.441406 329.910156 742.441406 C 328.988281 741.328125 328.214844 740.554688 327.539062 739.878906 C 327.34375 740.070312 327.101562 740.265625 326.8125 740.601562 C 326.328125 739.878906 326.28125 739.34375 326.375 738.8125 C 323.8125 736.683594 322.792969 737.167969 321.003906 735.132812 C 319.699219 731.890625 320.328125 729.519531 322.890625 728.019531 C 319.019531 722.257812 316.453125 721.484375 313.550781 721 C 322.070312 727.195312 311.519531 722.597656 319.117188 730.828125 C 317.761719 731.164062 315.679688 727.824219 314.46875 728.648438 C 316.019531 734.40625 325.167969 743.410156 328.359375 749.703125 C 321.441406 742.199219 312.292969 732.664062 305.808594 723.808594 C 299.078125 715.144531 293.175781 708.464844 291.09375 708.03125 C 288.191406 708.464844 287.027344 696.316406 292.015625 704.785156 C 290.949219 701.300781 280.011719 689.832031 276.140625 678.796875 C 275.847656 682.183594 276.816406 686.296875 272.75 682.910156 C 275.800781 693.023438 276.1875 689.976562 281.222656 697.285156 C 279.816406 696.605469 278.367188 695.976562 276.960938 696.800781 C 281.707031 703.191406 281.945312 699.851562 282.625 707.402344 C 268.007812 683.441406 255.039062 651.449219 247.585938 618.050781 C 243.375 601.789062 241.730469 584.703125 240.421875 568.394531 C 240.179688 560.261719 240.082031 552.226562 240.082031 544.53125 C 239.9375 536.789062 241.003906 529.429688 241.488281 522.363281 C 239.695312 519.894531 242.117188 516.992188 243.90625 513.507812 C 244.292969 510.410156 244.777344 507.40625 245.261719 504.359375 C 244.148438 503.828125 241.679688 507.457031 243.421875 500.582031 C 244.777344 498.261719 246.179688 494.582031 247.632812 490.128906 C 247.777344 489.402344 247.875 488.675781 248.019531 487.949219 C 249.90625 480.011719 251.890625 472.269531 253.875 464.816406 C 255.714844 457.3125 258.667969 450.441406 260.992188 443.761719 C 259.78125 440.664062 263.554688 438.386719 266.316406 435.097656 C 267.332031 432.582031 268.347656 430.015625 269.414062 427.5 C 268.6875 426.289062 264.910156 429.675781 268.492188 423.289062 C 270.621094 421.207031 273.1875 417.574219 276.042969 413.074219 C 276.625 411.914062 277.15625 410.703125 277.785156 409.589844 C 280.6875 403.976562 283.449219 398.554688 286.207031 393.570312 C 289.207031 388.777344 292.0625 384.371094 294.628906 380.5 C 284.753906 393.472656 277.496094 406.539062 270.089844 419.222656 C 263.75 432.433594 257.023438 445.359375 252.570312 460.023438 C 256.683594 439.792969 264.910156 421.0625 274.105469 403.683594 Z M 435.5625 817.027344 C 436.289062 817.367188 437.0625 817.707031 437.835938 818.042969 C 437.402344 816.738281 436.964844 816.011719 435.5625 817.027344 Z M 369.0625 724.679688 C 368.628906 724.242188 368.191406 723.757812 367.707031 723.324219 C 367.464844 724.148438 367.515625 724.921875 367.660156 725.742188 C 367.851562 725.261719 368.480469 725.164062 369.0625 724.679688 Z M 644.929688 255.917969 C 647.785156 256.789062 650.496094 257.613281 652.914062 258.144531 C 650.496094 257.128906 648.171875 256.207031 645.847656 255.289062 C 645.269531 255.480469 644.929688 255.675781 644.929688 255.917969 Z M 320.179688 701.832031 C 317.714844 699.269531 315.292969 696.027344 312.875 692.976562 C 312.679688 693.121094 312.535156 693.171875 312.339844 693.414062 C 314.90625 698.496094 318.488281 704.398438 321.050781 703.042969 C 320.808594 702.707031 320.472656 702.269531 320.179688 701.832031 Z M 298.742188 667.226562 C 299.515625 668.195312 300.339844 669.019531 301.257812 669.597656 C 300.53125 668.050781 299.804688 666.355469 299.175781 664.179688 C 298.789062 665 298.691406 666.066406 298.742188 667.226562 Z M 300.242188 671.96875 C 300.339844 672.117188 300.386719 672.261719 300.433594 672.453125 C 301.5 674.003906 302.226562 675.164062 302.804688 676.179688 C 303 676.421875 303.144531 676.714844 303.386719 676.957031 C 306.96875 681.503906 311.46875 685.667969 313.453125 687.894531 C 310.066406 679.8125 306.195312 677.683594 302.902344 672.550781 C 302.226562 672.601562 301.0625 671.875 300.242188 671.96875 Z M 302.566406 705.027344 C 305.273438 709.289062 307.5 712.289062 306.921875 709.433594 C 303.773438 705.5625 302.417969 701.738281 301.257812 698.6875 C 300 695.6875 298.742188 693.460938 295.835938 692.492188 C 297.289062 694.816406 300.046875 700.625 302.566406 705.027344 Z M 303.144531 714.515625 L 312.050781 727.824219 L 313.988281 726.421875 C 310.308594 722.644531 305.953125 710.546875 303.144531 714.515625 Z M 420.460938 808.847656 C 420.65625 808.703125 420.65625 808.558594 420.800781 808.414062 C 418.71875 807.636719 416.25 806.523438 413.445312 805.023438 C 407.394531 801.878906 399.84375 797.472656 392.4375 791.8125 C 398.488281 797.667969 411.703125 804.152344 420.460938 808.847656 Z M 386.195312 742.972656 C 386.632812 742.828125 387.066406 742.878906 387.453125 742.925781 C 380.921875 737.261719 374.628906 731.695312 368.191406 727.339844 C 369.304688 729.664062 371.726562 732.035156 374.628906 734.554688 C 376.953125 736.488281 379.46875 738.714844 382.179688 740.796875 C 384.890625 742.878906 387.597656 745.105469 389.875 747.621094 C 390.550781 746.363281 387.839844 744.621094 386.195312 742.972656 Z M 419.007812 763.304688 C 418.089844 763.011719 416.929688 762.433594 415.574219 761.707031 C 416.6875 762.480469 417.847656 763.253906 419.007812 764.027344 C 419.007812 763.785156 419.058594 763.59375 419.007812 763.304688 Z M 415.039062 729.472656 C 413.589844 727.875 412.089844 726.277344 410.441406 724.726562 C 410.878906 726.613281 412.765625 728.019531 415.039062 729.472656 Z M 410.636719 723.46875 C 410.589844 723.371094 410.492188 723.324219 410.441406 723.226562 C 410.441406 723.277344 410.441406 723.324219 410.441406 723.371094 C 410.492188 723.371094 410.589844 723.421875 410.636719 723.46875 Z M 853.621094 467.1875 C 851.683594 461.039062 849.75 456.152344 849.554688 456.683594 C 849.554688 456.730469 849.554688 456.78125 849.554688 456.828125 C 851.25 461.28125 852.554688 464.71875 853.621094 467.1875 Z M 823.855469 394.925781 C 823.324219 393.375 821.4375 390.085938 818.484375 385.921875 C 821 390.277344 822.742188 393.230469 823.902344 395.019531 C 823.855469 394.972656 823.855469 394.972656 823.855469 394.925781 Z M 808.949219 363.5625 C 809.191406 363.898438 809.335938 364.238281 809.578125 364.578125 C 811.128906 366.707031 812.628906 368.933594 814.128906 371.0625 C 812.433594 368.402344 810.691406 365.789062 808.949219 363.5625 Z M 534.632812 237.042969 C 535.648438 238.492188 539.375 239.265625 544.746094 239.65625 C 549.296875 239.847656 555.054688 240.140625 561.445312 240.476562 C 563.136719 240.429688 564.6875 240.285156 565.894531 239.992188 C 565.265625 240.234375 564.929688 240.476562 564.589844 240.671875 C 567.25 240.816406 569.960938 241.011719 572.71875 241.203125 C 572.140625 239.460938 582.835938 240.71875 597.210938 243.140625 C 600.402344 243.769531 603.792969 244.589844 607.277344 245.414062 C 613.324219 246.429688 618.601562 247.882812 622.910156 249.433594 C 624.117188 249.722656 625.328125 250.0625 626.539062 250.351562 C 627.070312 250.496094 627.601562 250.640625 628.136719 250.835938 C 625.472656 247.929688 636.507812 253.011719 643.960938 254.5625 C 640.378906 253.160156 636.847656 251.753906 633.460938 250.496094 C 627.265625 248.269531 621.214844 246.769531 615.40625 245.125 C 609.792969 243.671875 604.324219 242.171875 599 241.105469 C 597.546875 240.914062 596.191406 240.71875 594.691406 240.527344 C 594.691406 240.476562 594.742188 240.476562 594.789062 240.429688 C 590.53125 239.75 586.320312 239.074219 582.109375 238.542969 C 576.6875 237.914062 571.316406 237.089844 565.800781 236.847656 C 560.28125 236.703125 554.714844 236.605469 548.910156 236.652344 C 544.3125 236.507812 539.519531 236.703125 534.632812 237.042969 Z M 263.992188 408.234375 C 265.878906 403.296875 273.285156 394.441406 271.542969 392.164062 C 269.507812 395.167969 267.765625 394.925781 265.734375 397.636719 C 269.121094 398.265625 262.152344 406.492188 263.992188 408.234375 Z M 453.953125 817.269531 C 457.582031 817.996094 461.695312 817.996094 462.710938 817.707031 C 457.921875 816.15625 453.082031 814.753906 448.53125 812.625 C 447.417969 814.800781 450.324219 816.542969 453.953125 817.269531 Z M 518.371094 838.324219 C 512.320312 838.855469 507.914062 837.984375 503.949219 837.113281 C 499.980469 836.097656 496.445312 835.324219 491.703125 836.484375 C 495.769531 836.628906 501.964844 838.855469 507.480469 839.679688 C 512.996094 840.550781 517.691406 840.792969 518.371094 838.324219 Z M 453.757812 753.089844 C 462.566406 755.414062 469.585938 764.5625 475.78125 762.285156 C 470.117188 759.867188 460.003906 752.507812 453.757812 753.089844 Z M 492.042969 767.464844 C 487.636719 767.125 478.78125 760.835938 478.25 765.578125 C 484.054688 764.367188 489.671875 771.09375 492.042969 767.464844 Z M 361.269531 832.804688 C 366.980469 836.4375 373.417969 841.566406 380 846.164062 C 386.582031 850.667969 393.648438 854.054688 399.601562 855.3125 C 393.359375 851.683594 385.46875 847.179688 378.789062 842.246094 C 371.917969 837.5 365.625 833.582031 361.269531 832.804688 Z M 244.585938 677.828125 C 245.84375 677.003906 246.761719 676.132812 244.972656 672.210938 L 241.679688 673.472656 C 243.617188 679.570312 246.277344 685.085938 248.746094 684.457031 C 247.390625 681.167969 245.988281 679.472656 244.585938 677.828125 Z M 423.269531 840.597656 C 430.527344 842.824219 442 849.261719 447.371094 849.164062 C 455.550781 852.3125 463.148438 854.585938 466.050781 853.472656 C 460.777344 851.828125 452.984375 848.925781 445.289062 846.164062 C 437.640625 843.359375 430.335938 839.871094 425.203125 838.664062 C 427.964844 839.921875 431.449219 841.761719 435.269531 843.695312 C 436.53125 844.375 437.882812 845.003906 439.191406 845.679688 C 432.949219 842.96875 426.511719 840.019531 423.269531 840.597656 Z M 378.839844 769.257812 C 375.304688 765.722656 372.257812 763.304688 370.078125 761.65625 C 367.949219 759.914062 366.546875 759.1875 366.109375 759.335938 C 365.289062 759.527344 368.386719 763.640625 378.839844 769.257812 Z M 346.507812 762.527344 C 356.042969 770.320312 368.144531 780.582031 380.921875 790.070312 C 380.871094 789.34375 380.773438 788.664062 379.566406 787.792969 C 385.226562 787.261719 386.484375 794.859375 391.859375 797.714844 C 391.808594 797.714844 391.761719 797.714844 391.714844 797.765625 C 396.601562 801.054688 401.488281 804.203125 406.328125 806.863281 C 402.457031 806.039062 397.085938 802.847656 391.519531 799.070312 C 390.9375 798.683594 390.40625 798.296875 389.824219 797.910156 C 389.003906 797.714844 388.226562 797.136719 387.597656 796.410156 C 383.292969 793.410156 379.128906 790.3125 375.597656 787.746094 L 360.546875 775.742188 C 355.707031 771.53125 351.15625 766.980469 346.507812 762.527344 Z M 382.515625 791.277344 C 383.535156 792.003906 384.550781 792.730469 385.566406 793.457031 C 384.453125 791.617188 383.535156 790.214844 382.515625 791.277344 Z M 232.144531 532.480469 C 232.242188 527.734375 232.628906 525.605469 233.355469 525.703125 C 232.824219 528.996094 232.339844 532.480469 231.808594 536.109375 C 231.46875 535.722656 231.226562 535.238281 230.789062 534.898438 C 230.453125 543.5625 229.582031 553.195312 229.726562 563.359375 C 229.628906 573.523438 229.289062 584.269531 230.355469 594.820312 C 231.128906 605.417969 232 616.019531 234.324219 625.652344 C 236.453125 635.332031 238.4375 644.480469 241.875 651.835938 C 240.664062 644.332031 239.355469 636.394531 238.097656 628.363281 C 239.261719 633.976562 240.566406 639.882812 242.261719 645.929688 C 244.828125 655.804688 247.246094 666.210938 251.019531 676.179688 C 254.503906 686.199219 258.136719 696.21875 262.832031 704.929688 C 267.378906 713.742188 271.6875 722.015625 276.914062 728.261719 C 264.71875 701.15625 249.714844 668.871094 245.066406 641.625 C 245.84375 643.367188 246.472656 646.316406 247.632812 646.027344 C 244.632812 642.347656 243.082031 636.058594 242.117188 630.296875 C 241.148438 625.023438 239.9375 620.421875 236.742188 618.679688 C 236.5 616.890625 236.261719 615.101562 236.019531 613.308594 C 236.210938 614.035156 236.453125 614.761719 236.648438 615.4375 C 234.953125 608.324219 235.339844 606.96875 238.050781 610.164062 C 235.871094 603.386719 235.050781 595.304688 234.128906 586.738281 C 233.695312 582.476562 233.355469 578.074219 233.066406 573.621094 C 233.015625 572.507812 233.015625 571.34375 233.015625 570.230469 C 233.066406 566.699219 233.257812 563.214844 233.550781 559.824219 C 233.839844 561.714844 233.695312 564.714844 234.855469 564.761719 C 232.921875 560.40625 233.015625 553.921875 233.597656 548.113281 C 233.792969 545.5 233.886719 543.03125 233.695312 540.902344 C 233.792969 538.917969 233.839844 536.789062 234.035156 534.898438 C 234.277344 532.238281 234.46875 529.671875 234.664062 527.15625 C 234.757812 527.300781 234.808594 527.445312 234.90625 527.640625 C 234.855469 526.234375 234.90625 524.734375 234.953125 523.285156 C 235 522.21875 235.050781 521.203125 235.148438 520.1875 C 235.535156 515.054688 236.355469 509.632812 237.226562 504.019531 C 237.90625 499.761719 238.726562 495.453125 239.597656 491.097656 C 240.46875 486.742188 241.875 482.480469 243.035156 478.222656 C 243.035156 478.175781 243.082031 478.125 243.082031 478.078125 C 243.277344 479.046875 243.664062 480.0625 244.148438 480.546875 C 246.375 470.960938 249.714844 461.621094 252.714844 452.183594 C 252.230469 446.277344 246.375 469.171875 244.148438 475.464844 C 244.003906 475.464844 243.953125 475.65625 243.808594 475.707031 C 246.035156 468.105469 248.070312 460.605469 250.535156 453.972656 C 253.246094 446.566406 255.617188 439.839844 257.167969 434.226562 C 254.503906 439.9375 251.261719 447.199219 247.828125 455.28125 C 244.679688 463.460938 241.921875 472.65625 239.164062 481.851562 C 237.710938 486.449219 236.648438 491.097656 235.871094 495.792969 C 235 500.4375 234.226562 504.988281 233.597656 509.34375 C 233.015625 513.699219 232.339844 517.863281 232.195312 521.734375 C 231.953125 525.703125 232 529.285156 232.144531 532.480469 Z M 392.195312 821.722656 C 387.503906 818.769531 380.726562 813.929688 374.046875 809.285156 C 367.367188 804.589844 361.222656 799.363281 356.578125 796.84375 C 358.898438 798.78125 361.804688 801.441406 364.996094 804.296875 C 368.144531 807.25 371.628906 810.203125 375.257812 812.71875 C 382.324219 817.898438 389.101562 822.0625 392.195312 821.722656 Z M 224.644531 508.617188 C 224.207031 512.199219 223.871094 515.878906 223.726562 519.410156 C 223.773438 522.992188 223.917969 526.382812 224.0625 529.285156 C 223.964844 525.65625 224.160156 521.929688 224.742188 518.347656 C 225.417969 514.765625 226.242188 511.230469 227.015625 507.890625 C 228.566406 501.261719 229.96875 495.453125 229.53125 491.289062 C 227.0625 494.871094 225.515625 501.453125 224.644531 508.617188 Z M 516.386719 860.589844 C 508.0625 857.683594 513.289062 860.925781 516.386719 860.589844 Z M 312.242188 339.359375 C 315.339844 335.050781 324.777344 328.46875 323.714844 325.808594 C 320.957031 328.179688 319.359375 327.453125 316.695312 329.582031 C 319.746094 331.082031 310.890625 337.230469 312.242188 339.359375 Z M 482.941406 759.816406 C 477.910156 758.703125 470.117188 753.234375 466.921875 754.929688 C 472.003906 758.460938 477.039062 760.445312 482.941406 759.816406 Z M 866.6875 467.816406 C 867.511719 470.914062 868.332031 473.914062 869.058594 476.722656 C 870.703125 482.335938 872.398438 487.175781 874.480469 490.417969 C 871.238281 479.382812 868.574219 466.21875 863.734375 458.523438 C 864.75 461.667969 865.71875 464.765625 866.6875 467.816406 Z M 613.324219 882.5625 C 611.148438 886.578125 609.261719 890.597656 604.613281 893.695312 C 612.890625 893.453125 613.957031 890.789062 620.101562 889.53125 C 619.617188 885.855469 617.585938 883.386719 613.324219 882.5625 Z M 876.65625 560.117188 C 876.804688 552.082031 880.867188 539.546875 876.898438 531.851562 C 872.640625 533.738281 872.835938 555.613281 876.65625 560.117188 Z M 467.214844 847.472656 C 470.457031 851.199219 487.347656 857.925781 494.269531 856.28125 C 486.863281 852.988281 472.296875 846.164062 467.214844 847.472656 Z M 840.601562 706.191406 C 838.085938 711.417969 835.714844 716.355469 833.4375 721.144531 C 830.96875 725.839844 828.648438 730.535156 826.421875 735.230469 C 829.46875 730.292969 832.710938 724.96875 836.003906 719.5 C 839.003906 713.886719 842.054688 708.125 845.101562 702.464844 C 851.296875 691.234375 855.265625 679.667969 857.394531 670.421875 C 854.347656 677.34375 851.539062 683.730469 848.878906 689.683594 C 845.925781 695.589844 843.167969 701.058594 840.601562 706.191406 Z M 883.289062 544.628906 C 883.917969 551.453125 884.789062 558.179688 885.175781 564.761719 C 885.464844 571.394531 885.757812 577.78125 886.046875 584.027344 C 886.289062 576.71875 886.480469 569.359375 886.433594 562.148438 C 886.046875 554.9375 885.464844 547.824219 884.789062 540.902344 C 884.402344 537.464844 884.015625 534.078125 883.625 530.738281 C 883.09375 527.398438 882.367188 524.203125 881.691406 521.007812 C 880.289062 514.714844 878.691406 508.714844 876.949219 503.195312 C 879.5625 517.039062 882.222656 530.929688 883.289062 544.628906 Z M 883.289062 544.628906"/></clipPath><clipPath id="d"><path d="M 220 328 L 407 328 L 407 534 L 220 534 Z M 220 328"/></clipPath><clipPath id="e"><path d="M 266.179688 285.476562 L 471.65625 378.972656 L 378.160156 584.453125 L 172.683594 490.957031 Z M 266.179688 285.476562"/></clipPath><clipPath id="f"><path d="M 266.179688 285.476562 L 471.65625 378.972656 L 378.160156 584.453125 L 172.683594 490.957031 Z M 266.179688 285.476562"/></clipPath><clipPath id="g"><path d="M 213 321 L 414 321 L 414 541 L 213 541 Z M 213 321"/></clipPath><clipPath id="h"><path d="M 266.179688 285.476562 L 471.65625 378.972656 L 378.160156 584.453125 L 172.683594 490.957031 Z M 266.179688 285.476562"/></clipPath><clipPath id="i"><path d="M 266.179688 285.476562 L 471.65625 378.972656 L 378.160156 584.453125 L 172.683594 490.957031 Z M 266.179688 285.476562"/></clipPath><clipPath id="j"><path d="M 693 672 L 831 672 L 831 856 L 693 856 Z M 693 672"/></clipPath><clipPath id="k"><path d="M 744.855469 910.820312 L 594.773438 760.734375 L 744.855469 610.652344 L 894.9375 760.734375 Z M 744.855469 910.820312"/></clipPath><clipPath id="l"><path d="M 744.855469 910.820312 L 594.773438 760.734375 L 744.855469 610.652344 L 894.9375 760.734375 Z M 744.855469 910.820312"/></clipPath><clipPath id="m"><path d="M 686 666 L 837 666 L 837 862 L 686 862 Z M 686 666"/></clipPath><clipPath id="n"><path d="M 744.855469 910.820312 L 594.773438 760.734375 L 744.855469 610.652344 L 894.9375 760.734375 Z M 744.855469 910.820312"/></clipPath><clipPath id="o"><path d="M 744.855469 910.820312 L 594.773438 760.734375 L 744.855469 610.652344 L 894.9375 760.734375 Z M 744.855469 910.820312"/></clipPath><linearGradient x1="-10.355" gradientTransform="matrix(-4.78375 -.73428 .73424 -4.78406 829.633 939.17)" xmlns:xlink="http://www.w3.org/1999/xlink" y1="68.557" x2="146.46" gradientUnits="userSpaceOnUse" y2="68.557" xlink:type="simple" xlink:actuate="onLoad" id="c" xlink:show="other"><stop stop-color="#1F628E" offset="0"/><stop stop-color="#1F628E" offset=".063"/><stop stop-color="#1F628E" offset=".07"/><stop stop-color="#1F638E" offset=".078"/><stop stop-color="#1E638F" offset=".086"/><stop stop-color="#1E648F" offset=".094"/><stop stop-color="#1E658F" offset=".102"/><stop stop-color="#1E658F" offset=".109"/><stop stop-color="#1D6690" offset=".117"/><stop stop-color="#1D6790" offset=".125"/><stop stop-color="#1D6790" offset=".133"/><stop stop-color="#1D6890" offset=".141"/><stop stop-color="#1C6890" offset=".148"/><stop stop-color="#1C6991" offset=".156"/><stop stop-color="#1C6A91" offset=".164"/><stop stop-color="#1B6A91" offset=".172"/><stop stop-color="#1B6B91" offset=".18"/><stop stop-color="#1B6C92" offset=".188"/><stop stop-color="#1B6C92" offset=".195"/><stop stop-color="#1A6D92" offset=".203"/><stop stop-color="#1A6D92" offset=".211"/><stop stop-color="#1A6E93" offset=".219"/><stop stop-color="#196F93" offset=".227"/><stop stop-color="#196F93" offset=".234"/><stop stop-color="#197093" offset=".242"/><stop stop-color="#197193" offset=".25"/><stop stop-color="#187194" offset=".258"/><stop stop-color="#187294" offset=".266"/><stop stop-color="#187294" offset=".273"/><stop stop-color="#187394" offset=".281"/><stop stop-color="#177495" offset=".289"/><stop stop-color="#177495" offset=".297"/><stop stop-color="#177595" offset=".305"/><stop stop-color="#167695" offset=".313"/><stop stop-color="#167696" offset=".32"/><stop stop-color="#167796" offset=".328"/><stop stop-color="#167796" offset=".336"/><stop stop-color="#157896" offset=".344"/><stop stop-color="#157996" offset=".352"/><stop stop-color="#157997" offset=".359"/><stop stop-color="#147A97" offset=".367"/><stop stop-color="#147B97" offset=".375"/><stop stop-color="#147B97" offset=".383"/><stop stop-color="#147C98" offset=".391"/><stop stop-color="#137C98" offset=".398"/><stop stop-color="#137D98" offset=".406"/><stop stop-color="#137E98" offset=".414"/><stop stop-color="#137E99" offset=".422"/><stop stop-color="#127F99" offset=".43"/><stop stop-color="#128099" offset=".438"/><stop stop-color="#128099" offset=".445"/><stop stop-color="#118199" offset=".453"/><stop stop-color="#11819A" offset=".461"/><stop stop-color="#11829A" offset=".469"/><stop stop-color="#11839A" offset=".477"/><stop stop-color="#10839A" offset=".484"/><stop stop-color="#10849B" offset=".492"/><stop stop-color="#10859B" offset=".5"/><stop stop-color="#0F859B" offset=".508"/><stop stop-color="#0F869B" offset=".516"/><stop stop-color="#0F869C" offset=".523"/><stop stop-color="#0F879C" offset=".531"/><stop stop-color="#0E889C" offset=".539"/><stop stop-color="#0E889C" offset=".547"/><stop stop-color="#0E899C" offset=".555"/><stop stop-color="#0E8A9D" offset=".563"/><stop stop-color="#0D8A9D" offset=".57"/><stop stop-color="#0D8B9D" offset=".578"/><stop stop-color="#0D8B9D" offset=".586"/><stop stop-color="#0C8C9E" offset=".594"/><stop stop-color="#0C8D9E" offset=".602"/><stop stop-color="#0C8D9E" offset=".609"/><stop stop-color="#0C8E9E" offset=".617"/><stop stop-color="#0B8F9F" offset=".625"/><stop stop-color="#0B8F9F" offset=".633"/><stop stop-color="#0B909F" offset=".641"/><stop stop-color="#0A909F" offset=".648"/><stop stop-color="#0A91A0" offset=".656"/><stop stop-color="#0A92A0" offset=".664"/><stop stop-color="#0A92A0" offset=".672"/><stop stop-color="#0993A0" offset=".68"/><stop stop-color="#0994A0" offset=".688"/><stop stop-color="#0994A1" offset=".695"/><stop stop-color="#0995A1" offset=".703"/><stop stop-color="#0895A1" offset=".711"/><stop stop-color="#0896A1" offset=".719"/><stop stop-color="#0897A2" offset=".727"/><stop stop-color="#0797A2" offset=".734"/><stop stop-color="#0798A2" offset=".742"/><stop stop-color="#0799A2" offset=".75"/><stop stop-color="#0799A3" offset=".758"/><stop stop-color="#069AA3" offset=".766"/><stop stop-color="#069AA3" offset=".773"/><stop stop-color="#069BA3" offset=".781"/><stop stop-color="#059CA3" offset=".789"/><stop stop-color="#059CA4" offset=".797"/><stop stop-color="#059DA4" offset=".805"/><stop stop-color="#059EA4" offset=".813"/><stop stop-color="#049EA4" offset=".82"/><stop stop-color="#049FA5" offset=".828"/><stop stop-color="#049FA5" offset=".836"/><stop stop-color="#04A0A5" offset=".844"/><stop stop-color="#03A1A5" offset=".852"/><stop stop-color="#03A1A6" offset=".859"/><stop stop-color="#03A2A6" offset=".867"/><stop stop-color="#02A3A6" offset=".875"/><stop stop-color="#02A3A6" offset=".883"/><stop stop-color="#02A4A6" offset=".891"/><stop stop-color="#02A4A7" offset=".898"/><stop stop-color="#01A5A7" offset=".906"/><stop stop-color="#01A6A7" offset=".914"/><stop stop-color="#01A6A7" offset=".922"/><stop stop-color="#01A7A8" offset=".93"/><stop stop-color="#00A8A8" offset=".938"/><stop stop-color="#00A8A8" offset="1"/></linearGradient></defs><path fill="#FFF" d="M-112.5 -112.5H1237.5V1237.5H-112.5z"/><path fill="#FFF" d="M-112.5 -112.5H1237.5V1237.5H-112.5z"/><path fill="#E8EAEC" d="M-112.5 -112.5H1237.5V1237.5H-112.5z"/><g clip-path="url(#a)"><g clip-path="url(#b)"><path fill="url(#c)" d="M 871.09375 999.394531 L 987.441406 241.324219 L 237.273438 126.175781 L 120.929688 884.246094 Z M 871.09375 999.394531"/></g></g><g><g><g><path d="M 13.703125 -20.640625 C 26.828125 -20.640625 35.015625 -21.796875 38.265625 -24.109375 C 41.523438 -26.421875 43.46875 -28.890625 44.09375 -31.515625 C 44.71875 -34.148438 45.03125 -37.34375 45.03125 -41.09375 L 45.03125 -240.359375 C 45.03125 -248.484375 43.65625 -253.546875 40.90625 -255.546875 C 35.894531 -259.054688 26.765625 -260.8125 13.515625 -260.8125 L 13.515625 -281.4375 L 116.140625 -281.4375 C 167.429688 -281.4375 200.769531 -267.179688 216.15625 -238.671875 C 222.28125 -227.410156 225.34375 -213.804688 225.34375 -197.859375 C 225.34375 -181.910156 222.15625 -168.117188 215.78125 -156.484375 C 198.382812 -125.210938 163.734375 -109.578125 111.828125 -109.578125 C 109.453125 -109.578125 107.078125 -109.640625 104.703125 -109.765625 L 87.25 -109.765625 L 87.25 -50.46875 C 87.25 -44.09375 87.59375 -38.960938 88.28125 -35.078125 C 88.96875 -31.203125 91.4375 -27.828125 95.6875 -24.953125 C 99.945312 -22.078125 113.082031 -20.640625 135.09375 -20.640625 L 135.09375 0 L 13.703125 0 Z M 108.078125 -128.53125 C 131.335938 -128.53125 149.160156 -134.3125 161.546875 -145.875 C 173.929688 -157.445312 180.125 -174.929688 180.125 -198.328125 C 180.125 -226.847656 168.238281 -245.921875 144.46875 -255.546875 C 135.96875 -259.054688 125.648438 -260.8125 113.515625 -260.8125 L 87.25 -260.8125 L 87.25 -128.53125 Z M 108.078125 -128.53125" transform="translate(443.353 689.236)"/></g></g></g><g fill="#FFFBFB"><g><g><path d="M 13.703125 -20.640625 C 26.828125 -20.640625 35.015625 -21.796875 38.265625 -24.109375 C 41.523438 -26.421875 43.46875 -28.890625 44.09375 -31.515625 C 44.71875 -34.148438 45.03125 -37.34375 45.03125 -41.09375 L 45.03125 -240.359375 C 45.03125 -248.484375 43.65625 -253.546875 40.90625 -255.546875 C 35.894531 -259.054688 26.765625 -260.8125 13.515625 -260.8125 L 13.515625 -281.4375 L 116.140625 -281.4375 C 167.429688 -281.4375 200.769531 -267.179688 216.15625 -238.671875 C 222.28125 -227.410156 225.34375 -213.804688 225.34375 -197.859375 C 225.34375 -181.910156 222.15625 -168.117188 215.78125 -156.484375 C 198.382812 -125.210938 163.734375 -109.578125 111.828125 -109.578125 C 109.453125 -109.578125 107.078125 -109.640625 104.703125 -109.765625 L 87.25 -109.765625 L 87.25 -50.46875 C 87.25 -44.09375 87.59375 -38.960938 88.28125 -35.078125 C 88.96875 -31.203125 91.4375 -27.828125 95.6875 -24.953125 C 99.945312 -22.078125 113.082031 -20.640625 135.09375 -20.640625 L 135.09375 0 L 13.703125 0 Z M 108.078125 -128.53125 C 131.335938 -128.53125 149.160156 -134.3125 161.546875 -145.875 C 173.929688 -157.445312 180.125 -174.929688 180.125 -198.328125 C 180.125 -226.847656 168.238281 -245.921875 144.46875 -255.546875 C 135.96875 -259.054688 125.648438 -260.8125 113.515625 -260.8125 L 87.25 -260.8125 L 87.25 -128.53125 Z M 108.078125 -128.53125" transform="translate(462.216 689.236)"/></g></g></g><g clip-path="url(#d)"><g clip-path="url(#e)"><g clip-path="url(#f)"><path fill="#FFBD59" d="M 321.992188 499.617188 L 306.585938 533.480469 L 406.398438 503.101562 L 364.601562 405.980469 L 348.226562 441.859375 C 244.09375 393.261719 319.980469 328.359375 319.980469 328.359375 C 319.980469 328.359375 94.300781 408.886719 321.992188 499.617188 Z M 321.992188 499.617188"/></g></g></g><g clip-path="url(#g)"><g clip-path="url(#h)"><g clip-path="url(#i)"><path fill="#FFBD59" d="M 315.828125 496.8125 L 302.355469 526.421875 L 300.421875 530.675781 C 299.300781 533.140625 299.832031 536.0625 301.640625 538.027344 C 303.546875 540.109375 306.292969 540.613281 308.960938 539.820312 C 312.265625 538.820312 315.582031 537.796875 318.890625 536.796875 C 326.835938 534.386719 334.785156 531.953125 342.730469 529.539062 C 352.34375 526.621094 361.964844 523.683594 371.574219 520.765625 C 379.886719 518.246094 388.191406 515.699219 396.503906 513.183594 C 400.53125 511.964844 404.609375 510.84375 408.59375 509.507812 C 408.652344 509.484375 408.710938 509.460938 408.761719 509.460938 C 412.160156 508.425781 414.097656 503.949219 412.726562 500.746094 C 411.34375 497.515625 409.945312 494.273438 408.554688 491.0625 C 405.21875 483.34375 401.914062 475.613281 398.582031 467.898438 C 394.539062 458.519531 390.519531 449.148438 386.476562 439.769531 C 383.011719 431.695312 379.53125 423.640625 376.0625 415.5625 C 374.375 411.644531 372.753906 407.683594 371.003906 403.785156 C 370.984375 403.726562 370.960938 403.667969 370.929688 403.628906 C 369.824219 401.09375 367.589844 399.355469 364.769531 399.285156 C 362.097656 399.214844 359.546875 400.730469 358.425781 403.195312 C 356.59375 407.222656 354.730469 411.261719 352.898438 415.289062 C 349.972656 421.722656 347.015625 428.164062 344.089844 434.597656 L 342.0625 439.054688 L 351.03125 435.695312 C 344.484375 432.640625 338.105469 429.269531 331.984375 425.441406 C 332.503906 425.777344 333.007812 426.082031 333.527344 426.414062 C 325.882812 421.625 318.652344 416.101562 312.488281 409.476562 L 313.6875 410.765625 C 311.59375 408.5 309.636719 406.097656 307.886719 403.5625 C 307.097656 402.410156 306.335938 401.246094 305.617188 400.050781 C 305.28125 399.476562 304.957031 398.882812 304.621094 398.308594 C 304.015625 397.1875 305.515625 400.054688 304.925781 398.894531 C 304.773438 398.574219 304.601562 398.25 304.445312 397.929688 C 303.34375 395.667969 302.398438 393.328125 301.644531 390.902344 C 301.472656 390.351562 301.320312 389.8125 301.179688 389.25 C 301.097656 388.992188 301.039062 388.742188 300.988281 388.46875 C 300.621094 386.988281 301.421875 390.40625 301.085938 388.910156 C 300.832031 387.78125 300.648438 386.65625 300.476562 385.507812 C 300.121094 383.015625 299.988281 380.476562 300.066406 377.957031 L 300.011719 379.71875 C 300.144531 375.117188 300.949219 370.570312 302.273438 366.1875 C 302.101562 366.78125 301.921875 367.34375 301.75 367.933594 C 303.203125 363.164062 305.238281 358.582031 307.695312 354.21875 C 308.347656 353.054688 309.042969 351.90625 309.761719 350.769531 C 309.425781 351.285156 309.121094 351.792969 308.785156 352.308594 C 310.960938 348.835938 313.394531 345.503906 316.027344 342.335938 C 317.953125 340.011719 319.984375 337.785156 322.128906 335.636719 C 322.859375 334.902344 323.601562 334.199219 324.34375 333.496094 L 323.050781 334.695312 L 323.933594 333.902344 C 326.527344 331.6875 327.628906 328.394531 325.96875 325.230469 C 324.394531 322.257812 320.847656 320.894531 317.65625 322.019531 C 315.671875 322.730469 313.703125 323.519531 311.738281 324.289062 C 306.652344 326.3125 301.628906 328.519531 296.671875 330.800781 C 289.261719 334.226562 281.992188 337.9375 274.875 341.914062 C 267.339844 346.101562 260 350.671875 252.992188 355.71875 C 245.582031 361.050781 238.515625 366.988281 232.253906 373.664062 C 226.476562 379.816406 221.339844 386.851562 217.945312 394.585938 C 214.515625 402.398438 212.882812 411.054688 213.882812 419.597656 C 215.007812 429.285156 219.300781 438.382812 225.089844 446.148438 C 232.855469 456.554688 243 465.0625 253.671875 472.347656 C 269.359375 483.058594 286.386719 491.699219 303.757812 499.304688 C 308.910156 501.550781 314.082031 503.707031 319.289062 505.777344 C 322.582031 507.101562 326.839844 505.914062 328.257812 502.417969 C 329.574219 499.148438 328.425781 494.855469 324.898438 493.449219 C 308.804688 487.019531 292.914062 479.914062 277.773438 471.4375 C 274.234375 469.453125 270.753906 467.398438 267.34375 465.25 C 267.859375 465.585938 268.367188 465.890625 268.882812 466.226562 C 260.515625 460.953125 252.425781 455.140625 245.214844 448.363281 C 243.507812 446.769531 241.863281 445.101562 240.285156 443.390625 L 241.484375 444.679688 C 237.539062 440.378906 234.09375 435.738281 231.261719 430.628906 C 231.078125 430.320312 232.25 432.542969 231.78125 431.609375 C 231.714844 431.480469 231.648438 431.351562 231.597656 431.253906 C 231.441406 430.933594 231.28125 430.636719 231.148438 430.328125 C 230.863281 429.753906 230.601562 429.1875 230.367188 428.609375 C 229.882812 427.496094 229.4375 426.351562 229.039062 425.203125 C 228.667969 424.117188 228.332031 422.996094 228.039062 421.894531 L 227.933594 421.476562 C 227.695312 420.523438 228.195312 422.585938 228.207031 422.617188 C 228.15625 422.347656 228.085938 422.066406 228.015625 421.785156 C 227.894531 421.234375 227.804688 420.671875 227.703125 420.128906 C 227.300781 417.691406 227.128906 415.230469 227.191406 412.753906 L 227.132812 414.515625 C 227.222656 410.882812 227.847656 407.273438 228.902344 403.8125 C 228.734375 404.402344 228.550781 404.964844 228.382812 405.558594 C 229.753906 401.074219 231.800781 396.84375 234.292969 392.894531 C 233.957031 393.414062 233.652344 393.917969 233.316406 394.4375 C 236.515625 389.367188 240.386719 384.730469 244.605469 380.476562 C 245.851562 379.207031 247.132812 377.976562 248.449219 376.765625 L 247.160156 377.964844 C 253.003906 372.589844 259.363281 367.769531 265.949219 363.328125 C 272.390625 358.988281 279.082031 355.015625 285.929688 351.308594 C 286.75 350.863281 287.542969 350.433594 288.355469 350.007812 C 285.699219 351.429688 287.503906 350.464844 288.128906 350.128906 C 288.523438 349.910156 288.929688 349.722656 289.328125 349.507812 C 290.882812 348.703125 292.429688 347.917969 294 347.144531 C 296.886719 345.703125 299.796875 344.324219 302.738281 342.984375 C 307.21875 340.933594 311.761719 338.957031 316.34375 337.121094 C 318.351562 336.300781 320.40625 335.597656 322.417969 334.777344 L 322.507812 334.746094 C 320.414062 330.789062 318.320312 326.835938 316.234375 322.859375 C 313.34375 325.339844 310.625 328.097656 308.085938 330.960938 C 302.765625 336.921875 298.109375 343.558594 294.398438 350.625 C 289.679688 359.636719 286.878906 369.5 286.707031 379.691406 C 286.488281 391.445312 290.789062 402.925781 297.621094 412.386719 C 307.902344 426.585938 323.09375 436.699219 338.464844 444.613281 C 340.8125 445.828125 343.167969 446.976562 345.5625 448.089844 C 348.875 449.644531 353.027344 448.039062 354.535156 444.730469 C 356.367188 440.703125 358.226562 436.664062 360.0625 432.636719 C 362.988281 426.203125 365.945312 419.761719 368.871094 413.332031 L 370.898438 408.871094 C 366.722656 408.730469 362.574219 408.582031 358.394531 408.441406 C 359.777344 411.671875 361.179688 414.914062 362.570312 418.128906 C 365.902344 425.84375 369.207031 433.574219 372.542969 441.292969 C 376.582031 450.671875 380.605469 460.039062 384.644531 469.417969 C 388.113281 477.496094 391.589844 485.550781 395.058594 493.625 C 396.75 497.546875 398.328125 501.539062 400.117188 505.402344 C 400.140625 505.460938 400.164062 505.523438 400.195312 505.5625 L 404.160156 496.847656 C 400.851562 497.847656 397.535156 498.871094 394.226562 499.871094 C 386.285156 502.28125 378.332031 504.714844 370.386719 507.128906 C 360.777344 510.046875 351.15625 512.984375 341.542969 515.902344 C 333.230469 518.421875 324.929688 520.96875 316.613281 523.484375 C 312.589844 524.703125 308.527344 525.832031 304.527344 527.160156 C 304.464844 527.183594 304.40625 527.207031 304.355469 527.207031 C 307.207031 530.265625 310.042969 533.292969 312.894531 536.351562 L 326.367188 506.742188 L 328.300781 502.488281 C 329.769531 499.261719 328.335938 494.890625 324.941406 493.519531 C 321.40625 492.082031 317.398438 493.359375 315.828125 496.8125 Z M 315.828125 496.8125"/></g></g></g><g clip-path="url(#j)"><g clip-path="url(#k)"><g clip-path="url(#l)"><path fill="#FFBD59" d="M 766.332031 703.867188 L 791.066406 679.136719 L 693.167969 672.964844 L 697.9375 772.261719 L 724.1875 746.070312 C 799.84375 823.199219 711.625 855.316406 711.625 855.316406 C 711.625 855.316406 936.886719 858.84375 766.332031 703.867188 Z M 766.332031 703.867188"/></g></g></g><g clip-path="url(#m)"><g clip-path="url(#n)"><g clip-path="url(#o)"><path fill="#FFBD59" d="M 770.835938 708.371094 L 792.460938 686.742188 L 795.566406 683.636719 C 797.367188 681.835938 797.863281 679.089844 796.917969 676.761719 C 795.929688 674.300781 793.675781 672.953125 791.066406 672.769531 C 787.824219 672.5625 784.566406 672.367188 781.324219 672.15625 C 773.535156 671.660156 765.730469 671.179688 757.941406 670.683594 C 748.515625 670.085938 739.078125 669.5 729.652344 668.898438 C 721.503906 668.375 713.351562 667.878906 705.203125 667.351562 C 701.253906 667.097656 697.292969 666.738281 693.347656 666.601562 C 693.285156 666.601562 693.226562 666.601562 693.179688 666.585938 C 689.847656 666.378906 686.667969 669.679688 686.816406 672.953125 C 686.96875 676.253906 687.132812 679.570312 687.296875 682.855469 C 687.6875 690.75 688.046875 698.644531 688.4375 706.539062 C 688.902344 716.128906 689.355469 725.707031 689.820312 735.296875 C 690.210938 743.550781 690.613281 751.789062 691.003906 760.042969 C 691.199219 764.050781 691.320312 768.074219 691.574219 772.082031 C 691.574219 772.140625 691.574219 772.203125 691.589844 772.246094 C 691.726562 774.84375 693.121094 777.109375 695.582031 778.101562 C 697.910156 779.046875 700.65625 778.550781 702.457031 776.75 C 705.398438 773.808594 708.371094 770.867188 711.3125 767.925781 C 716.007812 763.226562 720.738281 758.527344 725.433594 753.832031 L 728.691406 750.574219 L 719.6875 750.574219 C 724.445312 755.421875 728.945312 760.496094 733.074219 765.882812 C 732.726562 765.417969 732.382812 764.984375 732.039062 764.515625 C 737.1875 771.257812 741.734375 778.503906 744.976562 786.371094 L 744.34375 784.839844 C 745.441406 787.523438 746.371094 790.285156 747.078125 793.09375 C 747.390625 794.367188 747.675781 795.644531 747.917969 796.933594 C 748.023438 797.550781 748.113281 798.179688 748.21875 798.796875 C 748.382812 799.980469 748.007812 796.964844 748.140625 798.179688 C 748.171875 798.511719 748.21875 798.855469 748.246094 799.1875 C 748.472656 801.542969 748.53125 803.914062 748.398438 806.300781 C 748.367188 806.839844 748.320312 807.367188 748.261719 807.90625 C 748.246094 808.160156 748.21875 808.402344 748.171875 808.65625 C 748.007812 810.082031 748.425781 806.8125 748.230469 808.238281 C 748.082031 809.316406 747.871094 810.367188 747.648438 811.433594 C 747.136719 813.746094 746.414062 816.027344 745.515625 818.21875 L 746.144531 816.6875 C 744.507812 820.695312 742.304688 824.429688 739.691406 827.851562 C 740.039062 827.386719 740.382812 826.953125 740.726562 826.488281 C 737.875 830.207031 734.574219 833.570312 730.972656 836.601562 C 730.011719 837.414062 729.019531 838.191406 728.015625 838.957031 C 728.480469 838.613281 728.917969 838.269531 729.382812 837.921875 C 726.320312 840.265625 723.078125 842.394531 719.714844 844.316406 C 717.253906 845.726562 714.734375 847.019531 712.136719 848.203125 C 711.25 848.609375 710.367188 848.984375 709.480469 849.359375 L 711.011719 848.730469 L 709.976562 849.132812 C 706.957031 850.230469 704.902344 852.765625 705.324219 856.097656 C 705.726562 859.234375 708.398438 861.605469 711.582031 861.667969 C 713.5625 861.695312 715.558594 861.652344 717.539062 861.621094 C 722.6875 861.515625 727.835938 861.230469 732.953125 860.855469 C 740.609375 860.285156 748.230469 859.414062 755.8125 858.257812 C 763.824219 857.058594 771.796875 855.453125 779.628906 853.320312 C 787.914062 851.070312 796.09375 848.171875 803.808594 844.363281 C 810.921875 840.851562 817.765625 836.347656 823.304688 830.660156 C 828.902344 824.910156 833.195312 817.828125 835.128906 809.976562 C 837.335938 801.078125 836.554688 791.652344 834.019531 782.902344 C 830.613281 771.179688 824.488281 760.34375 817.496094 750.410156 C 807.214844 735.804688 795.074219 722.582031 782.285156 710.15625 C 778.488281 706.480469 774.648438 702.878906 770.746094 699.335938 C 768.28125 697.085938 764.140625 696.722656 761.738281 699.335938 C 759.503906 701.78125 759.097656 705.941406 761.738281 708.339844 C 773.792969 719.3125 785.4375 730.808594 795.972656 743.265625 C 798.433594 746.175781 800.820312 749.132812 803.117188 752.148438 C 802.773438 751.683594 802.425781 751.25 802.082031 750.785156 C 807.710938 758.183594 812.917969 765.972656 817.03125 774.316406 C 818.003906 776.285156 818.90625 778.292969 819.730469 780.320312 L 819.101562 778.789062 C 821.15625 783.878906 822.65625 789.101562 823.46875 794.535156 C 823.527344 794.863281 823.226562 792.523438 823.332031 793.5 C 823.347656 793.632812 823.363281 793.769531 823.378906 793.875 C 823.410156 794.203125 823.453125 794.519531 823.46875 794.835938 C 823.527344 795.433594 823.574219 796.019531 823.589844 796.605469 C 823.648438 797.746094 823.664062 798.902344 823.632812 800.042969 C 823.605469 801.121094 823.527344 802.21875 823.421875 803.285156 L 823.378906 803.6875 C 823.273438 804.605469 823.511719 802.625 823.511719 802.59375 C 823.46875 802.847656 823.4375 803.117188 823.410156 803.390625 C 823.332031 803.914062 823.226562 804.4375 823.136719 804.949219 C 822.6875 807.230469 822.027344 809.453125 821.15625 811.613281 L 821.789062 810.082031 C 820.511719 813.25 818.769531 816.222656 816.699219 818.921875 C 817.046875 818.457031 817.390625 818.023438 817.734375 817.558594 C 815.050781 821.054688 811.851562 824.101562 808.355469 826.757812 C 808.820312 826.410156 809.253906 826.066406 809.722656 825.722656 C 805.234375 829.128906 800.296875 831.933594 795.179688 834.292969 C 793.660156 834.996094 792.132812 835.65625 790.570312 836.289062 L 792.101562 835.65625 C 785.183594 838.464844 777.992188 840.609375 770.730469 842.351562 C 763.628906 844.046875 756.425781 845.335938 749.175781 846.34375 C 748.308594 846.460938 747.464844 846.582031 746.609375 846.6875 C 749.417969 846.3125 747.511719 846.566406 746.851562 846.65625 C 746.429688 846.71875 746.011719 846.746094 745.589844 846.808594 C 743.953125 847.003906 742.332031 847.183594 740.699219 847.347656 C 737.679688 847.664062 734.664062 847.917969 731.632812 848.128906 C 727.011719 848.457031 722.359375 848.699219 717.71875 848.804688 C 715.679688 848.863281 713.636719 848.804688 711.597656 848.863281 L 711.507812 848.863281 C 712.046875 853.035156 712.585938 857.207031 713.113281 861.394531 C 716.472656 860.164062 719.777344 858.632812 722.957031 856.953125 C 729.605469 853.457031 735.894531 849.148438 741.492188 844.152344 C 748.621094 837.773438 754.339844 830.011719 757.851562 821.097656 C 761.917969 810.816406 761.917969 799.292969 759.023438 788.710938 C 754.65625 772.816406 744.613281 758.902344 733.6875 746.867188 C 732.023438 745.019531 730.328125 743.234375 728.585938 741.464844 C 726.183594 739.003906 721.996094 739.046875 719.582031 741.464844 C 716.640625 744.40625 713.667969 747.347656 710.726562 750.289062 C 706.027344 754.988281 701.300781 759.683594 696.601562 764.382812 L 693.347656 767.640625 C 696.976562 769.140625 700.582031 770.640625 704.210938 772.140625 C 704.0625 768.839844 703.898438 765.523438 703.730469 762.234375 C 703.34375 754.339844 702.980469 746.445312 702.589844 738.554688 C 702.125 728.960938 701.675781 719.386719 701.210938 709.796875 C 700.820312 701.542969 700.414062 693.300781 700.023438 685.046875 C 699.828125 681.039062 699.753906 677.003906 699.453125 673.011719 C 699.453125 672.953125 699.453125 672.890625 699.441406 672.847656 L 693.078125 679.210938 C 696.316406 679.421875 699.574219 679.613281 702.816406 679.824219 C 710.605469 680.320312 718.410156 680.800781 726.199219 681.296875 C 735.625 681.894531 745.066406 682.480469 754.492188 683.082031 C 762.640625 683.605469 770.789062 684.101562 778.9375 684.628906 C 782.886719 684.882812 786.832031 685.226562 790.796875 685.378906 C 790.855469 685.378906 790.914062 685.378906 790.960938 685.394531 C 789.460938 681.761719 787.957031 678.160156 786.457031 674.527344 L 761.722656 699.261719 C 759.367188 701.617188 759.1875 705.941406 761.722656 708.265625 C 764.367188 710.699219 768.3125 710.890625 770.835938 708.371094 Z M 770.835938 708.371094"/></g></g></g></svg>